<svg xmlns="http://www.w3.org/2000/svg" viewBox="0 0 64 64"><defs><radialGradient id="f" cx="50%" cy="35%"><stop offset="0" stop-color="#48c9b0"/><stop offset="1" stop-color="#0b5345"/></radialGradient></defs>
<circle cx="32" cy="32" r="32" fill="url(#f)"/>
<path d="M12 24c4-10 12-14 20-14s16 4 20 14c-6-2-13-3-20-3s-14 1-20 3z" fill="#17202a"/>
<path d="M29 14h6l-3 5z" fill="#fdfefe"/><circle cx="32" cy="13" r="1.8" fill="#fdfefe"/>
<ellipse cx="32" cy="36" rx="12" ry="12" fill="#f0c9a0"/>
<path d="M20 30h24" stroke="#17202a" stroke-width="1.5"/><ellipse cx="37" cy="34" rx="4" ry="3.5" fill="#17202a"/>
<circle cx="27" cy="34" r="1.7" fill="#17202a"/>
<path d="M22 42c3 8 17 8 20 0-3 2-7 3-10 3s-7-1-10-3z" fill="#6e2c00"/>
<path d="M27 42c3 2 7 2 10 0" stroke="#fdfefe" stroke-width="1.5" fill="none"/>
<circle cx="45" cy="40" r="2" fill="none" stroke="#f4d03f" stroke-width="1.2"/>
<path d="M14 64c2-8 9-12 18-12s16 4 18 12" fill="#c0392b"/><path d="M18 58h28" stroke="#fdfefe" stroke-width="2" opacity=".6"/></svg>
